<svg
   xmlns:dc="http://purl.org/dc/elements/1.1/"
   xmlns:cc="http://creativecommons.org/ns#"
   xmlns:rdf="http://www.w3.org/1999/02/22-rdf-syntax-ns#"
   xmlns:svg="http://www.w3.org/2000/svg"
   xmlns="http://www.w3.org/2000/svg"
   id="svg60"
   version="1.1"
   viewBox="0 0  380 280">
  <metadata
     id="metadata66">
    <rdf:RDF>
      <cc:Work
         rdf:about="">
        <dc:format>image/svg+xml</dc:format>
        <dc:type
           rdf:resource="http://purl.org/dc/dcmitype/StillImage" />
      </cc:Work>
    </rdf:RDF>
  </metadata>
  <defs
     id="defs64" />
  <svg
     height="100%"
     width="100%"
     id="svg9"
     version="1.1"
     viewBox="0 0 380 280">
    <linearGradient
       y2="0"
       x2="1"
       y1="0"
       x1="0"
       id="bg_color_gradient">
      <stop
         id="stop2"
         style="stop-color:#ffffff;stop-opacity:1"
         offset="0%" />
      <stop
         id="stop4"
         style="stop-color:#ffffff;stop-opacity:1"
         offset="100%" />
    </linearGradient>
    <path
       id="rect7"
       d="M 0,0 H 380 V 280 H 0 Z"
       style="fill:url(#bg_color_gradient);fill-opacity:1" />
  </svg>
  <g
     transform="translate(107.35938,124.98438)"
     id="container">
    <g
       id="text11"
       style="font-size:30px;font-family:'Arial Unicode MS';fill:#211e1e;fill-opacity:1"
       aria-label="C">
      <path
         id="path69"
         style="font-size:30px;font-family:'Arial Unicode MS';fill:#211e1e;fill-opacity:1"
         d="m 20.493164,3.9697266 q -0.9375,3.618164 -3.28125,5.4052734 -2.329101,1.772461 -5.595703,1.772461 -5.2734376,0 -7.6904297,-3.2958985 -2.4023438,-3.3105469 -2.4023438,-7.95410156 0,-5.14160154 2.8271484,-8.04199224 2.8417969,-2.9150387 7.2949221,-2.9150387 3.134765,0 5.361328,1.5966794 2.226562,1.5966797 3.120117,4.6728515 L 17.34375,-4.1308594 Q 16.640625,-6.3720703 15.205078,-7.5 q -1.435547,-1.1279297 -3.588867,-1.1279297 -3.5156251,0 -5.3320313,2.3144531 -1.8164063,2.2998047 -1.8164063,6.18164066 0,4.48242184 1.9042969,6.66503904 1.9189453,2.1826172 4.9951177,2.1826172 2.519531,0 4.086914,-1.3623047 1.582031,-1.3623047 2.211914,-4.1015625 z" />
    </g>
    <g
       id="text13"
       style="font-size:30px;font-family:'Arial Unicode MS';fill:#211e1e;fill-opacity:1"
       aria-label="R">
      <path
         id="path72"
         style="font-size:30px;font-family:'Arial Unicode MS';fill:#211e1e;fill-opacity:1"
         d="M 45.359375,10.78125 H 41.785156 Q 38.577148,5.7128906 37.800781,4.5556641 37.024414,3.3984375 36.160156,2.578125 35.310547,1.7431641 34.548828,1.5234375 33.801758,1.3037109 32.556641,1.3037109 h -3.28125 V 10.78125 h -2.841797 v -21.474609 h 9.506836 q 1.948242,0 3.266601,0.249023 1.31836,0.249023 2.314453,1.0546876 0.996094,0.7910156 1.523438,2.0068359 0.541992,1.2158203 0.541992,2.5634766 0,2.4316406 -1.538086,3.91113277 -1.538086,1.47949219 -4.482422,1.87500001 v 0.0585937 q 2.153321,0.9521485 4.042969,3.9111328 z M 29.275391,-1.2451172 h 6.09375 q 1.845703,0 2.915039,-0.3076172 1.083984,-0.3222656 1.728515,-1.2304687 0.644532,-0.9082032 0.644532,-2.0361328 0,-1.4648438 -1.069336,-2.4902344 -1.069336,-1.0253906 -3.530274,-1.0253906 h -6.782226 z" />
    </g>
    <g
       id="text15"
       style="font-size:30px;font-family:'Arial Unicode MS';fill:#211e1e;fill-opacity:1"
       aria-label="E">
      <path
         id="path75"
         style="font-size:30px;font-family:'Arial Unicode MS';fill:#211e1e;fill-opacity:1"
         d="M 68.350586,10.78125 H 52.310547 v -21.474609 h 15.541992 v 2.5488277 H 55.152344 v 6.5625001 H 67.032227 V 0.96679688 H 55.152344 V 8.2324219 h 13.198242 z" />
    </g>
    <g
       id="text17"
       style="font-size:30px;font-family:'Arial Unicode MS';fill:#211e1e;fill-opacity:1"
       aria-label="A">
      <path
         id="path78"
         style="font-size:30px;font-family:'Arial Unicode MS';fill:#211e1e;fill-opacity:1"
         d="M 93.070312,10.78125 H 89.862305 L 87.342773,4.2480469 H 78.37793 L 76.004883,10.78125 h -3.00293 l 8.24707,-21.474609 h 3.061524 z M 86.478516,1.9921875 q -2.636719,-6.9726562 -2.973633,-7.9101562 -0.336914,-0.9521485 -0.747071,-2.5341797 h -0.07324 q -0.410156,2.1679687 -1.098633,4.0136718 l -2.402343,6.4306641 z" />
    </g>
    <g
       id="text19"
       style="font-size:30px;font-family:'Arial Unicode MS';fill:#211e1e;fill-opacity:1"
       aria-label="T">
      <path
         id="path81"
         style="font-size:30px;font-family:'Arial Unicode MS';fill:#211e1e;fill-opacity:1"
         d="m 113.32227,-8.1445313 h -7.1045 V 10.78125 h -2.85644 V -8.1445313 h -7.0459 v -2.5488277 h 17.00684 z" />
    </g>
    <g
       id="text21"
       style="font-size:30px;font-family:'Arial Unicode MS';fill:#211e1e;fill-opacity:1"
       aria-label="O">
      <path
         id="path84"
         style="font-size:30px;font-family:'Arial Unicode MS';fill:#211e1e;fill-opacity:1"
         d="m 127.6416,-11.05957 q 4.51172,0 7.38281,3.0615231 2.8711,3.0615235 2.8711,8.07128909 0,4.99511721 -2.88574,8.04199221 -2.88575,3.0322266 -7.36817,3.0322266 -4.64355,0 -7.4707,-3.1494141 -2.82715,-3.1494141 -2.82715,-7.69042971 0,-5.28808589 2.85645,-8.32031249 2.87109,-3.0468747 7.4414,-3.0468747 z m -0.0293,19.7753903 q 3.26661,0 5.28809,-2.2851562 2.03613,-2.2851563 2.05078,-6.35742191 0,-4.18945309 -2.08008,-6.44531249 -2.06543,-2.2558594 -5.20019,-2.2558594 -3.22266,0 -5.30274,2.2119141 -2.08007,2.211914 -2.08007,6.78222654 0,3.73535156 2.03613,6.04980466 2.03613,2.2998047 5.28808,2.2998047 z" />
    </g>
    <g
       id="text23"
       style="font-size:30px;font-family:'Arial Unicode MS';fill:#211e1e;fill-opacity:1"
       aria-label="R">
      <path
         id="path87"
         style="font-size:30px;font-family:'Arial Unicode MS';fill:#211e1e;fill-opacity:1"
         d="m 162.70312,10.78125 h -3.57421 Q 155.9209,5.7128906 155.14453,4.5556641 154.36816,3.3984375 153.50391,2.578125 152.6543,1.7431641 151.89258,1.5234375 151.14551,1.3037109 149.90039,1.3037109 h -3.28125 V 10.78125 h -2.8418 v -21.474609 h 9.50684 q 1.94824,0 3.2666,0.249023 1.31836,0.249023 2.31445,1.0546876 0.9961,0.7910156 1.52344,2.0068359 0.54199,1.2158203 0.54199,2.5634766 0,2.4316406 -1.53808,3.91113277 -1.53809,1.47949219 -4.48242,1.87500001 v 0.0585937 q 2.15332,0.9521485 4.04296,3.9111328 z M 146.61914,-1.2451172 h 6.09375 q 1.8457,0 2.91504,-0.3076172 1.08398,-0.3222656 1.72852,-1.2304687 0.64453,-0.9082032 0.64453,-2.0361328 0,-1.4648438 -1.06934,-2.4902344 -1.06934,-1.0253906 -3.53027,-1.0253906 h -6.78223 z" />
    </g>
    <g
       id="text25"
       style="font-size:30px;font-family:ZHENGTI;fill:#241e1e;fill-opacity:1"
       aria-label="1">
      <path
         id="path90"
         style="font-size:30px;font-family:ZHENGTI;fill:#241e1e;fill-opacity:1"
         d="m 88.5,23.3525 h 3.36 v 17.46 h 3.96 v -21 H 88.5 Z" />
    </g>
    <g
       id="text27"
       style="font-size:30px;font-family:ZHENGTI;fill:#241e1e;fill-opacity:1"
       aria-label="0">
      <path
         id="path93"
         style="font-size:30px;font-family:ZHENGTI;fill:#241e1e;fill-opacity:1"
         d="m 109.3625,41.1425 q 2.64,0 4.56,-1.29 1.92,-1.29 2.94,-3.69 1.02,-2.43 1.02,-5.76 0,-3.39 -1.02,-5.82 -1.02,-2.43 -2.94,-3.72 -1.92,-1.29 -4.56,-1.29 -2.67,0 -4.59,1.29 -1.92,1.29 -2.94,3.72 -1.02,2.43 -1.02,5.82 0,3.18 1.05,5.61 1.08,2.43 3,3.78 1.95,1.35 4.5,1.35 z m 0,-17.94 q 2.67,0 3.57,2.28 0.93,2.28 0.93,4.92 0,2.58 -0.93,4.86 -0.9,2.28 -3.57,2.28 -1.5,0 -2.52,-0.99 -1.02,-1.02 -1.53,-2.64 -0.48,-1.65 -0.48,-3.51 0,-2.79 0.96,-4.98 0.96,-2.22 3.57,-2.22 z" />
    </g>
    <g
       id="text29"
       style="font-size:30px;font-family:ZHENGTI;fill:#241e1e;fill-opacity:1"
       aria-label="2">
      <path
         id="path96"
         style="font-size:30px;font-family:ZHENGTI;fill:#241e1e;fill-opacity:1"
         d="m 140.03875,26.6225 q 0,2.94 -2.55,5.64 -2.55,2.7 -6.42,4.98 h 8.88 v 3.57 h -16.68 v -3.75 q 2.94,-1.23 5.88,-2.97 2.94,-1.74 4.92,-3.72 2.01,-1.98 2.01,-3.75 0,-1.68 -1.35,-2.58 -1.35,-0.9 -3.12,-0.9 -1.8,0 -3.15,0.96 -1.35,0.96 -1.35,2.7 h -3.84 v -1.26 q 0.33,-1.74 1.47,-3.09 1.17,-1.35 2.94,-2.1 1.8,-0.78 3.93,-0.78 2.37,0 4.29,0.93 1.92,0.93 3.03,2.55 1.11,1.59 1.11,3.57 z" />
    </g>
    <g
       id="text31"
       style="font-size:30px;font-family:ZHENGTI;fill:#241e1e;fill-opacity:1"
       aria-label="4">
      <path
         id="path99"
         style="font-size:30px;font-family:ZHENGTI;fill:#241e1e;fill-opacity:1"
         d="m 155.775,25.6325 h 3.99 v 7.86 h 2.1 v 3.54 h -2.1 v 3.78 h -3.99 v -3.78 h -10.65 l 3.9,-17.22 h 3.99 l -3.06,13.68 h 5.82 z" />
    </g>
    <svg
       id="svg57"
       version="1.1"
       height="8"
       width="79"
       y="24.265625"
       x="2">
      <svg
         id="svg55"
         version="1.1"
         width="79"
         viewBox="0 0 79 8"
         height="8">
        <mask
           fill="#fff"
           id="a">
          <path
             style="fill:none"
             id="path33"
             d="m 0,0.9798 h 4.1605 v 4.161 H 0 Z" />
        </mask>
        <mask
           fill="#fff"
           id="b">
          <path
             style="fill:none"
             id="path36"
             d="m 0.3435,0.12 h 7.88 v 7.8798 h -7.88 z" />
        </mask>
        <g
           style="fill:#2b9de3;fill-rule:evenodd"
           id="g53"
           transform="translate(0,-1)">
          <path
             id="path39"
             transform="translate(0,1.87999)"
             mask="url(#a)"
             d="m 4.1605,3.0598 c 0,1.149 -0.931,2.081 -2.08,2.081 -1.149,0 -2.081,-0.932 -2.081,-2.081 0,-1.149 0.932,-2.08 2.081,-2.08 1.149,0 2.08,0.931 2.08,2.08" />
          <path
             id="path41"
             d="m 16.5043,4.93979 c 0,1.32 -1.07,2.391 -2.39,2.391 -1.32,0 -2.39,-1.071 -2.39,-2.391 0,-1.32 1.07,-2.39 2.39,-2.39 1.32,0 2.39,1.07 2.39,2.39" />
          <path
             id="path43"
             d="m 28.8485,4.93979 c 0,1.492 -1.209,2.7 -2.7,2.7 -1.492,0 -2.701,-1.208 -2.701,-2.7 0,-1.491 1.209,-2.7 2.701,-2.7 1.491,0 2.7,1.209 2.7,2.7" />
          <path
             id="path45"
             d="m 41.1923,4.93979 c 0,1.663 -1.348,3.01 -3.01,3.01 -1.663,0 -3.011,-1.347 -3.011,-3.01 0,-1.662 1.348,-3.01 3.011,-3.01 1.662,0 3.01,1.348 3.01,3.01" />
          <path
             id="path47"
             d="m 53.536,4.93979 c 0,1.834 -1.486,3.32 -3.32,3.32 -1.834,0 -3.32,-1.486 -3.32,-3.32 0,-1.833 1.486,-3.32 3.32,-3.32 1.834,0 3.32,1.487 3.32,3.32" />
          <path
             id="path49"
             d="m 65.8798,4.93979 c 0,2.005 -1.625,3.63 -3.63,3.63 -2.005,0 -3.63,-1.625 -3.63,-3.63 0,-2.004 1.625,-3.63 3.63,-3.63 2.005,0 3.63,1.626 3.63,3.63" />
          <path
             id="path51"
             transform="translate(70,0.87999)"
             mask="url(#b)"
             d="m 8.2235,4.0598 c 0,2.176 -1.764,3.94 -3.94,3.94 -2.176,0 -3.94,-1.764 -3.94,-3.94 0,-2.176 1.764,-3.94 3.94,-3.94 2.176,0 3.94,1.764 3.94,3.94" />
        </g>
      </svg>
    </svg>
  </g>
</svg>
