<svg
   xmlns:dc="http://purl.org/dc/elements/1.1/"
   xmlns:cc="http://creativecommons.org/ns#"
   xmlns:rdf="http://www.w3.org/1999/02/22-rdf-syntax-ns#"
   xmlns:svg="http://www.w3.org/2000/svg"
   xmlns="http://www.w3.org/2000/svg"
   id="svg78"
   version="1.1"
   viewBox="0 0  380 280">
  <metadata
     id="metadata84">
    <rdf:RDF>
      <cc:Work
         rdf:about="">
        <dc:format>image/svg+xml</dc:format>
        <dc:type
           rdf:resource="http://purl.org/dc/dcmitype/StillImage" />
      </cc:Work>
    </rdf:RDF>
  </metadata>
  <defs
     id="defs82" />
  <svg
     height="100%"
     width="100%"
     id="svg9"
     version="1.1"
     viewBox="0 0 380 280">
    <linearGradient
       y2="0"
       x2="1"
       y1="0"
       x1="0"
       id="bg_color_gradient">
      <stop
         id="stop2"
         style="stop-color:#01143b;stop-opacity:1"
         offset="0%" />
      <stop
         id="stop4"
         style="stop-color:#01143b;stop-opacity:1"
         offset="100%" />
    </linearGradient>
    <path
       id="rect7"
       d="M 0,0 H 380 V 280 H 0 Z"
       style="fill:url(#bg_color_gradient);fill-opacity:1" />
  </svg>
  <svg
     id="svg15"
     version="1.1"
     height="91"
     width="61"
     y="94.5"
     x="267.75">
    <svg
       id="svg13"
       version="1.1"
       width="61"
       viewBox="0 0 61 91"
       height="91">
      <path
         style="fill:#e65c5c;fill-rule:evenodd"
         id="path11"
         d="M 9,14.426829 61,0 48,91 0,76.573171 42,81.012195 51,11.097561 Z" />
    </svg>
  </svg>
  <g
     transform="translate(297.75)"
     id="container">
    <g
       id="text17"
       style="font-size:36px;font-family:Dream-CuHeiGBT;fill:#ffffff;fill-opacity:1"
       aria-label="1">
      <path
         id="path87"
         style="font-size:36px;font-family:Dream-CuHeiGBT;fill:#ffffff;fill-opacity:1"
         d="m -78.225,126.211 q 2.412,-1.044 4.104,-2.088 1.728,-1.044 1.8,-1.152 v 19.512 h 5.364 v -24.876 h -4.932 q -2.34,1.728 -4.284,2.7 -1.944,0.972 -2.052,0.972 v 4.932 z" />
    </g>
    <g
       id="text19"
       style="font-size:36px;font-family:Dream-CuHeiGBT;fill:#ffffff;fill-opacity:1"
       aria-label="0">
      <path
         id="path90"
         style="font-size:36px;font-family:Dream-CuHeiGBT;fill:#ffffff;fill-opacity:1"
         d="m -45.1435,130.135 q -0.108,-6.876 -2.52,-9.972 -2.412,-3.132 -5.904,-3.096 -3.996,0.108 -6.48,3.672 -2.448,3.528 -2.52,9.396 0.108,6.264 2.592,9.432 2.484,3.168 5.976,3.204 3.96,-0.108 6.372,-3.528 2.412,-3.42 2.484,-9.108 z m -5.472,0 q -0.072,3.744 -1.008,6.48 -0.936,2.7 -2.232,2.808 -1.512,-0.108 -2.376,-2.808 -0.864,-2.736 -0.864,-6.48 0.036,-4.356 0.936,-6.84 0.936,-2.52 2.304,-2.592 3.024,0.252 3.24,9.432 z" />
    </g>
    <g
       id="text21"
       style="font-size:36px;font-family:Dream-CuHeiGBT;fill:#ffffff;fill-opacity:1"
       aria-label="2">
      <path
         id="path93"
         style="font-size:36px;font-family:Dream-CuHeiGBT;fill:#ffffff;fill-opacity:1"
         d="m -23.5775,138.919 h -11.88 q 0.864,-0.828 2.232,-2.124 1.404,-1.296 1.62,-1.44 5.544,-5.076 6.732,-7.668 1.224,-2.628 1.008,-3.456 -0.072,-3.816 -2.376,-5.436 -2.268,-1.62 -5.976,-1.584 -4.032,0.144 -6.012,2.376 -1.944,2.196 -2.232,5.076 h 5.328 q 0.252,-2.556 1.152,-3.24 0.936,-0.72 1.872,-0.648 2.16,0.18 2.628,1.44 0.468,1.26 0.396,1.728 -0.072,1.296 -1.26,3.024 -1.188,1.728 -2.772,3.456 -1.584,1.692 -2.808,2.844 -1.224,1.116 -1.368,1.224 -1.872,1.836 -2.52,2.484 -0.648,0.612 -0.576,0.54 v 4.968 h 16.812 z" />
    </g>
    <g
       id="text23"
       style="font-size:36px;font-family:Dream-CuHeiGBT;fill:#ffffff;fill-opacity:1"
       aria-label="4">
      <path
         id="path96"
         style="font-size:36px;font-family:Dream-CuHeiGBT;fill:#ffffff;fill-opacity:1"
         d="m -4.374,137.155 h 3.528 v -4.068 h -3.528 v -15.48 h -5.184 l -10.116,14.796 v 4.752 h 10.116 v 5.328 h 5.184 z m -5.184,-12.924 v 8.856 h -6.048 z" />
    </g>
    <g
       id="text25"
       style="font-size:16px;font-family:'Arial Unicode MS';fill:#ffffff;fill-opacity:1"
       aria-label="C">
      <path
         id="path99"
         style="font-size:16px;font-family:'Arial Unicode MS';fill:#ffffff;fill-opacity:1"
         d="m -236.57031,156.92969 q -0.5,1.92968 -1.75,2.88281 -1.24219,0.94531 -2.98438,0.94531 -2.8125,0 -4.10156,-1.75781 -1.28125,-1.76563 -1.28125,-4.24219 0,-2.74219 1.50781,-4.28906 1.51563,-1.55469 3.89063,-1.55469 1.67187,0 2.85937,0.85156 1.1875,0.85157 1.66407,2.49219 l -1.48438,0.35156 q -0.375,-1.19531 -1.14062,-1.79687 -0.76563,-0.60156 -1.91407,-0.60156 -1.875,0 -2.84375,1.23437 -0.96875,1.22656 -0.96875,3.29688 0,2.39062 1.01563,3.55468 1.02344,1.16407 2.66406,1.16407 1.34375,0 2.17969,-0.72657 0.84375,-0.72656 1.17969,-2.1875 z" />
    </g>
    <g
       id="text27"
       style="font-size:16px;font-family:'Arial Unicode MS';fill:#ffffff;fill-opacity:1"
       aria-label="R">
      <path
         id="path102"
         style="font-size:16px;font-family:'Arial Unicode MS';fill:#ffffff;fill-opacity:1"
         d="m -223.375,160.5625 h -1.90625 q -1.71094,-2.70313 -2.125,-3.32031 -0.41406,-0.61719 -0.875,-1.05469 -0.45312,-0.44531 -0.85937,-0.5625 -0.39844,-0.11719 -1.0625,-0.11719 h -1.75 v 5.05469 h -1.51563 v -11.45313 h 5.07031 q 1.03907,0 1.74219,0.13282 0.70313,0.13281 1.23438,0.5625 0.53125,0.42187 0.8125,1.07031 0.28906,0.64844 0.28906,1.36719 0,1.29687 -0.82031,2.08593 -0.82032,0.78907 -2.39063,1 v 0.0312 q 1.14844,0.50782 2.15625,2.08594 z m -8.57812,-6.41406 h 3.25 q 0.98437,0 1.55468,-0.16407 0.57813,-0.17187 0.92188,-0.65625 0.34375,-0.48437 0.34375,-1.08593 0,-0.78125 -0.57031,-1.32813 -0.57032,-0.54687 -1.88282,-0.54687 h -3.61718 z" />
    </g>
    <g
       id="text29"
       style="font-size:16px;font-family:'Arial Unicode MS';fill:#ffffff;fill-opacity:1"
       aria-label="E">
      <path
         id="path105"
         style="font-size:16px;font-family:'Arial Unicode MS';fill:#ffffff;fill-opacity:1"
         d="m -211.17969,160.5625 h -8.55468 v -11.45313 h 8.28906 v 1.35938 h -6.77344 v 3.5 h 6.33594 v 1.35937 h -6.33594 v 3.875 h 7.03906 z" />
    </g>
    <g
       id="text31"
       style="font-size:16px;font-family:'Arial Unicode MS';fill:#ffffff;fill-opacity:1"
       aria-label="A">
      <path
         id="path108"
         style="font-size:16px;font-family:'Arial Unicode MS';fill:#ffffff;fill-opacity:1"
         d="m -198.0625,160.5625 h -1.71094 l -1.34375,-3.48438 h -4.78125 l -1.26562,3.48438 h -1.60156 l 4.39843,-11.45313 h 1.63282 z m -3.51562,-4.6875 q -1.40625,-3.71875 -1.58594,-4.21875 -0.17969,-0.50781 -0.39844,-1.35156 h -0.0391 q -0.21875,1.15625 -0.58594,2.14062 l -1.28125,3.42969 z" />
    </g>
    <g
       id="text33"
       style="font-size:16px;font-family:'Arial Unicode MS';fill:#ffffff;fill-opacity:1"
       aria-label="T">
      <path
         id="path111"
         style="font-size:16px;font-family:'Arial Unicode MS';fill:#ffffff;fill-opacity:1"
         d="m -187.32812,150.46875 h -3.78907 v 10.09375 h -1.52343 v -10.09375 h -3.75782 v -1.35938 h 9.07032 z" />
    </g>
    <g
       id="text35"
       style="font-size:16px;font-family:'Arial Unicode MS';fill:#ffffff;fill-opacity:1"
       aria-label="O">
      <path
         id="path114"
         style="font-size:16px;font-family:'Arial Unicode MS';fill:#ffffff;fill-opacity:1"
         d="m -179.75781,148.91406 q 2.40625,0 3.9375,1.63281 1.53125,1.63282 1.53125,4.30469 0,2.66406 -1.53906,4.28906 -1.53907,1.61719 -3.92969,1.61719 -2.47656,0 -3.98438,-1.67969 -1.50781,-1.67968 -1.50781,-4.10156 0,-2.82031 1.52344,-4.4375 1.53125,-1.625 3.96875,-1.625 z m -0.0156,10.54688 q 1.74219,0 2.82032,-1.21875 1.08593,-1.21875 1.09375,-3.39063 0,-2.23437 -1.10938,-3.4375 -1.10156,-1.20312 -2.77344,-1.20312 -1.71875,0 -2.82812,1.17968 -1.10938,1.17969 -1.10938,3.61719 0,1.99219 1.08594,3.22656 1.08594,1.22657 2.82031,1.22657 z" />
    </g>
    <g
       id="text37"
       style="font-size:16px;font-family:'Arial Unicode MS';fill:#ffffff;fill-opacity:1"
       aria-label="R">
      <path
         id="path117"
         style="font-size:16px;font-family:'Arial Unicode MS';fill:#ffffff;fill-opacity:1"
         d="m -161.125,160.5625 h -1.90625 q -1.71094,-2.70313 -2.125,-3.32031 -0.41406,-0.61719 -0.875,-1.05469 -0.45312,-0.44531 -0.85937,-0.5625 -0.39844,-0.11719 -1.0625,-0.11719 h -1.75 v 5.05469 h -1.51563 v -11.45313 h 5.07031 q 1.03907,0 1.74219,0.13282 0.70313,0.13281 1.23438,0.5625 0.53125,0.42187 0.8125,1.07031 0.28906,0.64844 0.28906,1.36719 0,1.29687 -0.82031,2.08593 -0.82032,0.78907 -2.39063,1 v 0.0312 q 1.14844,0.50782 2.15625,2.08594 z m -8.57812,-6.41406 h 3.25 q 0.98437,0 1.55468,-0.16407 0.57813,-0.17187 0.92188,-0.65625 0.34375,-0.48437 0.34375,-1.08593 0,-0.78125 -0.57031,-1.32813 -0.57032,-0.54687 -1.88282,-0.54687 h -3.61718 z" />
    </g>
    <g
       id="text39"
       style="font-size:16px;font-family:'Arial Unicode MS';fill:#ffffff;fill-opacity:1" />
    <g
       id="text41"
       style="font-size:16px;font-family:'Arial Unicode MS';fill:#ffffff;fill-opacity:1"
       aria-label="-">
      <path
         id="path121"
         style="font-size:16px;font-family:'Arial Unicode MS';fill:#ffffff;fill-opacity:1"
         d="m -145.5625,157.125 h -4.29687 v -1.41406 h 4.29687 z" />
    </g>
    <g
       id="text43"
       style="font-size:16px;font-family:'Arial Unicode MS';fill:#ffffff;fill-opacity:1"
       aria-label="-">
      <path
         id="path124"
         style="font-size:16px;font-family:'Arial Unicode MS';fill:#ffffff;fill-opacity:1"
         d="m -139.0625,157.125 h -4.29687 v -1.41406 h 4.29687 z" />
    </g>
    <g
       id="text45"
       style="font-size:16px;font-family:'Arial Unicode MS';fill:#ffffff;fill-opacity:1"
       aria-label="&gt;">
      <path
         id="path127"
         style="font-size:16px;font-family:'Arial Unicode MS';fill:#ffffff;fill-opacity:1"
         d="m -129.16406,155.58594 -7.57813,3.20312 v -1.39844 l 6.01563,-2.46093 -6.01563,-2.49219 v -1.39844 l 7.57813,3.23438 z" />
    </g>
    <g
       id="text47"
       style="font-size:16px;font-family:'Arial Unicode MS';fill:#ffffff;fill-opacity:1" />
    <g
       id="text49"
       style="font-size:16px;font-family:'Arial Unicode MS';fill:#ffffff;fill-opacity:1"
       aria-label="&quot;">
      <path
         id="path131"
         style="font-size:16px;font-family:'Arial Unicode MS';fill:#ffffff;fill-opacity:1"
         d="m -107.99219,150.97656 -0.35156,2.19531 h -0.86719 l -0.38281,-2.19531 v -1.86719 h 1.60156 z m -2.75,0 -0.35156,2.19531 h -0.86719 l -0.38281,-2.19531 v -1.86719 h 1.60156 z" />
    </g>
    <g
       id="text51"
       style="font-size:16px;font-family:'Arial Unicode MS';fill:#ffffff;fill-opacity:1"
       aria-label="H">
      <path
         id="path134"
         style="font-size:16px;font-family:'Arial Unicode MS';fill:#ffffff;fill-opacity:1"
         d="M -95.976562,160.5625 H -97.5 v -5.39063 h -5.95313 v 5.39063 h -1.51562 v -11.45313 h 1.51562 v 4.70313 H -97.5 v -4.70313 h 1.523438 z" />
    </g>
    <g
       id="text53"
       style="font-size:16px;font-family:'Arial Unicode MS';fill:#ffffff;fill-opacity:1"
       aria-label="e">
      <path
         id="path137"
         style="font-size:16px;font-family:'Arial Unicode MS';fill:#ffffff;fill-opacity:1"
         d="M -85.226562,156.77344 H -91.4375 q 0.08594,1.375 0.78125,2.10156 0.703125,0.72656 1.75,0.72656 0.804688,0 1.351563,-0.42187 0.546875,-0.42969 0.835937,-1.28907 l 1.445313,0.17969 q -0.351563,1.29688 -1.289063,1.99219 -0.9375,0.69531 -2.34375,0.69531 -1.867187,0 -2.921875,-1.14062 -1.046875,-1.14844 -1.046875,-3.13282 0,-1.96093 1.015625,-3.17968 1.023438,-1.21875 2.875,-1.21875 0.90625,0 1.742188,0.39843 0.84375,0.39844 1.429687,1.35938 0.585938,0.95312 0.585938,2.92969 z m -1.445313,-1.15625 q -0.08594,-1.26563 -0.789062,-1.82032 -0.695313,-0.5625 -1.523438,-0.5625 -0.992187,0 -1.632812,0.66407 -0.640625,0.66406 -0.742188,1.71875 z" />
    </g>
    <g
       id="text55"
       style="font-size:16px;font-family:'Arial Unicode MS';fill:#ffffff;fill-opacity:1"
       aria-label="l">
      <path
         id="path140"
         style="font-size:16px;font-family:'Arial Unicode MS';fill:#ffffff;fill-opacity:1"
         d="m -81.023437,160.5625 h -1.40625 v -11.45313 h 1.40625 z" />
    </g>
    <g
       id="text57"
       style="font-size:16px;font-family:'Arial Unicode MS';fill:#ffffff;fill-opacity:1"
       aria-label="l">
      <path
         id="path143"
         style="font-size:16px;font-family:'Arial Unicode MS';fill:#ffffff;fill-opacity:1"
         d="m -76.523437,160.5625 h -1.40625 v -11.45313 h 1.40625 z" />
    </g>
    <g
       id="text59"
       style="font-size:16px;font-family:'Arial Unicode MS';fill:#ffffff;fill-opacity:1"
       aria-label="o">
      <path
         id="path146"
         style="font-size:16px;font-family:'Arial Unicode MS';fill:#ffffff;fill-opacity:1"
         d="m -70.054687,152.08594 q 1.679687,0 2.78125,1.09375 1.109375,1.09375 1.109375,3.10937 0,2.44531 -1.195313,3.46094 -1.195312,1.00781 -2.695312,1.00781 -1.570313,0 -2.726563,-1.03906 -1.15625,-1.03906 -1.15625,-3.29688 0,-2.1875 1.117188,-3.25781 1.117187,-1.07812 2.765625,-1.07812 z m 0,7.51562 q 1.203125,0 1.828125,-0.89062 0.625,-0.89063 0.625,-2.34375 0,-1.55469 -0.710938,-2.34375 -0.703125,-0.78907 -1.742187,-0.78907 -1.070313,0 -1.757813,0.80469 -0.6875,0.79688 -0.6875,2.38281 0,1.57813 0.695313,2.38282 0.703125,0.79687 1.75,0.79687 z" />
    </g>
    <g
       id="text61"
       style="font-size:16px;font-family:'Arial Unicode MS';fill:#ffffff;fill-opacity:1"
       aria-label=",">
      <path
         id="path149"
         style="font-size:16px;font-family:'Arial Unicode MS';fill:#ffffff;fill-opacity:1"
         d="m -61.460937,160.5625 q 0,0.99219 -0.382813,1.51562 -0.375,0.52344 -0.929687,0.74219 l -0.382813,-0.59375 q 0.875,-0.375 0.882813,-1.66406 H -63.0625 v -1.60156 h 1.601563 z" />
    </g>
    <g
       id="text63"
       style="font-size:16px;font-family:'Arial Unicode MS';fill:#ffffff;fill-opacity:1"
       aria-label="W">
      <path
         id="path152"
         style="font-size:16px;font-family:'Arial Unicode MS';fill:#ffffff;fill-opacity:1"
         d="m -44.070312,149.10937 -3.15625,11.45313 h -1.453125 l -2.5,-9.02344 q -0.195313,-0.69531 -0.25,-1.05469 h -0.03125 l -0.320313,1.35938 -2.4375,8.71875 H -55.75 l -3.054687,-11.45313 h 1.546875 l 1.765625,7.51563 q 0.351562,1.47656 0.445312,2.17187 0.01563,0.14063 0.01563,0.16407 H -55 q 0.3125,-1.48438 0.492188,-2.125 l 2.179687,-7.72657 h 1.84375 l 1.625,5.78907 q 0.609375,2.15625 0.882813,4.0625 h 0.03125 q 0.164062,-0.92969 0.546875,-2.49219 l 1.804687,-7.35938 z" />
    </g>
    <g
       id="text65"
       style="font-size:16px;font-family:'Arial Unicode MS';fill:#ffffff;fill-opacity:1"
       aria-label="o">
      <path
         id="path155"
         style="font-size:16px;font-family:'Arial Unicode MS';fill:#ffffff;fill-opacity:1"
         d="m -38.554687,152.08594 q 1.679687,0 2.78125,1.09375 1.109375,1.09375 1.109375,3.10937 0,2.44531 -1.195313,3.46094 -1.195312,1.00781 -2.695312,1.00781 -1.570313,0 -2.726563,-1.03906 -1.15625,-1.03906 -1.15625,-3.29688 0,-2.1875 1.117188,-3.25781 1.117187,-1.07812 2.765625,-1.07812 z m 0,7.51562 q 1.203125,0 1.828125,-0.89062 0.625,-0.89063 0.625,-2.34375 0,-1.55469 -0.710938,-2.34375 -0.703125,-0.78907 -1.742187,-0.78907 -1.070313,0 -1.757813,0.80469 -0.6875,0.79688 -0.6875,2.38281 0,1.57813 0.695313,2.38282 0.703125,0.79687 1.75,0.79687 z" />
    </g>
    <g
       id="text67"
       style="font-size:16px;font-family:'Arial Unicode MS';fill:#ffffff;fill-opacity:1"
       aria-label="r">
      <path
         id="path158"
         style="font-size:16px;font-family:'Arial Unicode MS';fill:#ffffff;fill-opacity:1"
         d="m -27.460937,152.53125 -0.484375,1.29687 q -0.523438,-0.30468 -1.023438,-0.30468 -0.789062,0 -1.195312,0.71093 -0.40625,0.70313 -0.40625,1.97657 v 4.35156 h -1.40625 v -8.28906 h 1.28125 v 1.25 h 0.03125 q 0.671875,-1.4375 1.757812,-1.4375 0.71875,0 1.445313,0.44531 z" />
    </g>
    <g
       id="text69"
       style="font-size:16px;font-family:'Arial Unicode MS';fill:#ffffff;fill-opacity:1"
       aria-label="l">
      <path
         id="path161"
         style="font-size:16px;font-family:'Arial Unicode MS';fill:#ffffff;fill-opacity:1"
         d="m -22.773437,160.5625 h -1.40625 v -11.45313 h 1.40625 z" />
    </g>
    <g
       id="text71"
       style="font-size:16px;font-family:'Arial Unicode MS';fill:#ffffff;fill-opacity:1"
       aria-label="d">
      <path
         id="path164"
         style="font-size:16px;font-family:'Arial Unicode MS';fill:#ffffff;fill-opacity:1"
         d="m -12.976563,160.5625 h -1.3125 v -1.05469 h -0.03125 q -0.757812,1.25 -2.289062,1.25 -1.523437,0 -2.546875,-1.20312 -1.015625,-1.21094 -1.015625,-3.13282 0,-2.00781 0.960938,-3.17187 0.960937,-1.16406 2.539062,-1.16406 1.484375,0 2.257812,1.13281 h 0.03125 v -4.10938 h 1.40625 z m -3.484374,-0.96094 q 0.921874,0 1.562499,-0.75781 0.640625,-0.75781 0.640625,-2.29688 0,-1.51562 -0.585937,-2.41406 -0.585938,-0.89844 -1.679687,-0.89844 -1.09375,0 -1.65625,0.88282 -0.554688,0.875 -0.554688,2.30468 0,1.03125 0.296875,1.75 0.304688,0.71094 0.84375,1.07032 0.539063,0.35937 1.132813,0.35937 z" />
    </g>
    <g
       id="text73"
       style="font-size:16px;font-family:'Arial Unicode MS';fill:#ffffff;fill-opacity:1"
       aria-label="!">
      <path
         id="path167"
         style="font-size:16px;font-family:'Arial Unicode MS';fill:#ffffff;fill-opacity:1"
         d="m -8.1484375,151.64844 -0.3984375,6.0625 h -0.9140625 l -0.4296875,-6.0625 v -2.53907 h 1.7421875 z m -0.078125,8.91406 H -9.828125 v -1.60156 h 1.6015625 z" />
    </g>
    <g
       id="text75"
       style="font-size:16px;font-family:'Arial Unicode MS';fill:#ffffff;fill-opacity:1"
       aria-label="&quot;">
      <path
         id="path170"
         style="font-size:16px;font-family:'Arial Unicode MS';fill:#ffffff;fill-opacity:1"
         d="M -0.7421875,150.97656 -1.09375,153.17187 H -1.9609375 L -2.34375,150.97656 v -1.86719 h 1.6015625 z m -2.75,0 -0.3515625,2.19531 H -4.7109375 L -5.09375,150.97656 v -1.86719 h 1.6015625 z" />
    </g>
  </g>
</svg>
