<svg
   xmlns:dc="http://purl.org/dc/elements/1.1/"
   xmlns:cc="http://creativecommons.org/ns#"
   xmlns:rdf="http://www.w3.org/1999/02/22-rdf-syntax-ns#"
   xmlns:svg="http://www.w3.org/2000/svg"
   xmlns="http://www.w3.org/2000/svg"
   id="svg33"
   version="1.1"
   viewBox="0 0  380 280">
  <metadata
     id="metadata39">
    <rdf:RDF>
      <cc:Work
         rdf:about="">
        <dc:format>image/svg+xml</dc:format>
        <dc:type
           rdf:resource="http://purl.org/dc/dcmitype/StillImage" />
      </cc:Work>
    </rdf:RDF>
  </metadata>
  <defs
     id="defs37" />
  <svg
     height="100%"
     width="100%"
     id="svg2"
     version="1.1"
     viewBox="0 0 380 280" />
  <g
     transform="translate(113,73.5)"
     id="container">
    <svg
       id="svg8"
       version="1.1"
       height="133"
       width="129.10001"
       y="0.0"
       x="0.44999999">
      <svg
         height="100%"
         width="100%"
         id="svg6"
         version="1.1"
         viewBox="0 0 129.1 133">
        <path
           style="fill:#1ef799"
           id="path4"
           d="m 66.5,3 a 63.6,63.6 0 0 1 59.38,41 h 3.22 a 66.52,66.52 0 1 0 -4.58,55 H 121 A 63.49,63.49 0 1 1 66.5,3 Z" />
      </svg>
    </svg>
    <g
       id="text10"
       style="font-size:40px;font-family:'IDDianHei 55J';fill:#25fa9e;fill-opacity:1"
       aria-label="1">
      <path
         id="path41"
         style="font-size:40px;font-family:'IDDianHei 55J';fill:#25fa9e;fill-opacity:1"
         d="m 49.32,48.865 h 3.28 v 29.2 h -3.48 v -25.24 l -5.4,4.64 -1.28,-2.88 z" />
    </g>
    <g
       id="text12"
       style="font-size:40px;font-family:'IDDianHei 55J';fill:#25fa9e;fill-opacity:1"
       aria-label="0">
      <path
         id="path44"
         style="font-size:40px;font-family:'IDDianHei 55J';fill:#25fa9e;fill-opacity:1"
         d="m 61.455,63.465 q 0,-4.16 0.92,-7 0.92,-2.84 2.36,-4.56 1.48,-1.76 3.32,-2.52 1.84,-0.76 3.72,-0.76 1.88,0 3.72,0.8 1.88,0.76 3.36,2.52 1.48,1.72 2.4,4.56 0.92,2.84 0.92,6.96 0,4.16 -0.88,7 -0.88,2.84 -2.36,4.56 -1.44,1.72 -3.32,2.48 -1.88,0.8 -3.84,0.8 -1.88,0 -3.76,-0.76 -1.84,-0.76 -3.32,-2.48 -1.44,-1.76 -2.36,-4.6 -0.88,-2.84 -0.88,-7 z m 3.6,0 q 0,2.88 0.48,5.08 0.52,2.2 1.4,3.68 0.92,1.48 2.12,2.24 1.24,0.72 2.72,0.72 1.48,0 2.72,-0.72 1.28,-0.76 2.2,-2.2 0.92,-1.48 1.44,-3.68 0.52,-2.2 0.52,-5.12 0,-2.92 -0.52,-5.08 -0.52,-2.2 -1.48,-3.64 -0.92,-1.48 -2.2,-2.2 -1.24,-0.76 -2.68,-0.76 -1.48,0 -2.72,0.76 -1.2,0.72 -2.12,2.2 -0.88,1.44 -1.4,3.64 -0.48,2.2 -0.48,5.08 z" />
    </g>
    <g
       id="text14"
       style="font-size:40px;font-family:'IDDianHei 55J';fill:#25fa9e;fill-opacity:1"
       aria-label="2">
      <path
         id="path47"
         style="font-size:40px;font-family:'IDDianHei 55J';fill:#25fa9e;fill-opacity:1"
         d="m 88.935,75.705 q 1.04,-2.32 2.64,-4.08 1.6,-1.76 3.4,-3.16 1.8,-1.44 3.6,-2.64 1.8,-1.24 3.24,-2.52 1.44,-1.32 2.32,-2.8 0.92,-1.48 0.92,-3.44 0,-1 -0.36,-1.92 -0.32,-0.96 -1.04,-1.68 -0.72,-0.76 -1.84,-1.2 -1.12,-0.48 -2.68,-0.48 -1.04,0 -2.08,0.32 -1.04,0.32 -1.92,1 -0.88,0.64 -1.56,1.68 -0.68,1 -1.04,2.4 l -3.4,-0.56 q 0.4,-1.84 1.28,-3.32 0.88,-1.48 2.16,-2.52 1.32,-1.04 2.96,-1.6 1.68,-0.56 3.6,-0.56 2.36,0 4.12,0.64 1.76,0.6 2.92,1.72 1.2,1.08 1.8,2.6 0.6,1.52 0.6,3.32 0,2.24 -0.72,3.92 -0.72,1.64 -1.96,3 -1.2,1.36 -2.76,2.52 -1.52,1.16 -3.16,2.4 -1.6,1.24 -3.2,2.68 -1.6,1.4 -2.88,3.28 h 15 v 3.12 h -19.96 z" />
    </g>
    <g
       id="text16"
       style="font-size:40px;font-family:'IDDianHei 55J';fill:#25fa9e;fill-opacity:1"
       aria-label="4">
      <path
         id="path50"
         style="font-size:40px;font-family:'IDDianHei 55J';fill:#25fa9e;fill-opacity:1"
         d="m 128.56,48.865 h 4.92 v 19.72 h 3.76 v 3 h -3.76 v 6.48 H 130 v -6.48 h -14.4 v -2.4 z m 1.44,19.72 v -15.96 h -0.04 l -10.12,15.96 z" />
    </g>
    <g
       id="text18"
       style="font-size:12px;font-family:'Arial Unicode MS';fill:#4af7ac;fill-opacity:1"
       aria-label="C">
      <path
         id="path53"
         style="font-size:12px;font-family:'Arial Unicode MS';fill:#4af7ac;fill-opacity:1"
         d="m 46.197266,88.587891 q -0.375,1.447265 -1.3125,2.162109 -0.931641,0.708984 -2.238282,0.708984 -2.109375,0 -3.076172,-1.318359 -0.960937,-1.324219 -0.960937,-3.181641 0,-2.05664 1.130859,-3.216797 1.136719,-1.166015 2.917969,-1.166015 1.253906,0 2.144531,0.638672 0.890625,0.638672 1.248047,1.86914 L 44.9375,85.347656 Q 44.65625,84.451172 44.082031,84 q -0.574219,-0.451172 -1.435547,-0.451172 -1.40625,0 -2.132812,0.925781 -0.726563,0.919922 -0.726563,2.472657 0,1.792968 0.761719,2.666015 0.767578,0.873047 1.998047,0.873047 1.007812,0 1.634766,-0.544922 0.632812,-0.544922 0.884765,-1.640625 z" />
    </g>
    <g
       id="text20"
       style="font-size:12px;font-family:'Arial Unicode MS';fill:#4af7ac;fill-opacity:1"
       aria-label="R">
      <path
         id="path56"
         style="font-size:12px;font-family:'Arial Unicode MS';fill:#4af7ac;fill-opacity:1"
         d="m 57.34375,91.3125 h -1.429688 q -1.283203,-2.027344 -1.59375,-2.490234 -0.310546,-0.462891 -0.65625,-0.791016 -0.339843,-0.333984 -0.644531,-0.421875 -0.298828,-0.08789 -0.796875,-0.08789 h -1.3125 V 91.3125 h -1.136719 v -8.589844 h 3.802735 q 0.779297,0 1.30664,0.09961 0.527344,0.09961 0.925782,0.421875 0.398437,0.316406 0.609375,0.802734 0.216797,0.486328 0.216797,1.025391 0,0.972656 -0.615235,1.564453 -0.615234,0.591797 -1.792969,0.75 v 0.02344 q 0.861329,0.38086 1.617188,1.564453 z m -6.433594,-4.810547 h 2.4375 q 0.738281,0 1.166016,-0.123047 0.433594,-0.128906 0.691406,-0.492187 0.257813,-0.363282 0.257813,-0.814453 0,-0.585938 -0.427735,-0.996094 -0.427734,-0.410156 -1.412109,-0.410156 h -2.712891 z" />
    </g>
    <g
       id="text22"
       style="font-size:12px;font-family:'Arial Unicode MS';fill:#4af7ac;fill-opacity:1"
       aria-label="E">
      <path
         id="path59"
         style="font-size:12px;font-family:'Arial Unicode MS';fill:#4af7ac;fill-opacity:1"
         d="m 67.740234,91.3125 h -6.416015 v -8.589844 h 6.216797 v 1.019531 h -5.080079 v 2.625 h 4.751954 v 1.019532 h -4.751954 v 2.90625 h 5.279297 z" />
    </g>
    <g
       id="text24"
       style="font-size:12px;font-family:'Arial Unicode MS';fill:#4af7ac;fill-opacity:1"
       aria-label="A">
      <path
         id="path62"
         style="font-size:12px;font-family:'Arial Unicode MS';fill:#4af7ac;fill-opacity:1"
         d="M 78.828125,91.3125 H 77.544922 L 76.537109,88.699219 H 72.951172 L 72.001953,91.3125 h -1.201172 l 3.298828,-8.589844 h 1.22461 z m -2.636719,-3.515625 q -1.054687,-2.789063 -1.189453,-3.164063 -0.134766,-0.380859 -0.298828,-1.013671 h -0.0293 q -0.164062,0.867187 -0.439453,1.605468 l -0.960938,2.572266 z" />
    </g>
    <g
       id="text26"
       style="font-size:12px;font-family:'Arial Unicode MS';fill:#4af7ac;fill-opacity:1"
       aria-label="T">
      <path
         id="path65"
         style="font-size:12px;font-family:'Arial Unicode MS';fill:#4af7ac;fill-opacity:1"
         d="M 88.128906,83.742187 H 85.287109 V 91.3125 h -1.142578 v -7.570313 h -2.818359 v -1.019531 h 6.802734 z" />
    </g>
    <g
       id="text28"
       style="font-size:12px;font-family:'Arial Unicode MS';fill:#4af7ac;fill-opacity:1"
       aria-label="O">
      <path
         id="path68"
         style="font-size:12px;font-family:'Arial Unicode MS';fill:#4af7ac;fill-opacity:1"
         d="m 95.056641,82.576172 q 1.804687,0 2.953125,1.224609 1.148437,1.22461 1.148437,3.228516 0,1.998047 -1.154297,3.216797 -1.154297,1.21289 -2.947265,1.21289 -1.857422,0 -2.988282,-1.259765 -1.130859,-1.259766 -1.130859,-3.076172 0,-2.115235 1.142578,-3.328125 1.148438,-1.21875 2.976563,-1.21875 z m -0.01172,7.910156 q 1.30664,0 2.115234,-0.914062 0.814453,-0.914063 0.820313,-2.542969 0,-1.675781 -0.832032,-2.578125 -0.826171,-0.902344 -2.080078,-0.902344 -1.289062,0 -2.121093,0.884766 -0.832032,0.884765 -0.832032,2.71289 0,1.494141 0.814453,2.419922 0.814454,0.919922 2.115235,0.919922 z" />
    </g>
    <g
       id="text30"
       style="font-size:12px;font-family:'Arial Unicode MS';fill:#4af7ac;fill-opacity:1"
       aria-label="R">
      <path
         id="path71"
         style="font-size:12px;font-family:'Arial Unicode MS';fill:#4af7ac;fill-opacity:1"
         d="m 110.28125,91.3125 h -1.42969 q -1.2832,-2.027344 -1.59375,-2.490234 -0.31054,-0.462891 -0.65625,-0.791016 -0.33984,-0.333984 -0.64453,-0.421875 -0.29883,-0.08789 -0.79687,-0.08789 h -1.3125 V 91.3125 h -1.13672 v -8.589844 h 3.80273 q 0.7793,0 1.30664,0.09961 0.52735,0.09961 0.92578,0.421875 0.39844,0.316406 0.60938,0.802734 0.2168,0.486328 0.2168,1.025391 0,0.972656 -0.61524,1.564453 -0.61523,0.591797 -1.79297,0.75 v 0.02344 q 0.86133,0.38086 1.61719,1.564453 z m -6.43359,-4.810547 h 2.4375 q 0.73828,0 1.16601,-0.123047 0.4336,-0.128906 0.69141,-0.492187 0.25781,-0.363282 0.25781,-0.814453 0,-0.585938 -0.42773,-0.996094 -0.42774,-0.410156 -1.41211,-0.410156 h -2.71289 z" />
    </g>
  </g>
</svg>
